<svg width="24" height="24" viewBox="0 0 24 24" xmlns="http://www.w3.org/2000/svg" fill="#1D1D1D">
  <path d="M13.958 10.09c0 1.232.029 2.256-.591 3.351-.502.891-1.301 1.438-2.186 1.438-1.214 0-1.922-.924-1.922-2.292 0-2.692 2.415-3.182 4.699-3.182v.685zm3.186 7.705c-.209.189-.512.201-.745.076-1.052-.872-1.238-1.276-1.814-2.106-1.734 1.767-2.962 2.297-5.209 2.297-2.66 0-4.731-1.641-4.731-4.925 0-2.565 1.391-4.309 3.37-5.164 1.715-.754 4.11-.891 5.942-1.095V6.41c0-.753.06-1.642-.383-2.294-.384-.579-1.128-.82-1.784-.82-1.211 0-2.293.622-2.559 1.91-.054.285-.261.567-.55.582l-3.079-.333c-.259-.059-.548-.266-.472-.66C5.627 1.899 8.318.5 11.29.5c1.518 0 3.502.404 4.698 1.553C17.476 3.343 17.33 5.32 17.33 7.47v5.548c0 1.665.691 2.397 1.341 3.294.228.32.278.702-.013.94l-1.514 1.543zm3.432 2.853C18.777 22.527 15.658 24 12.938 24 9.125 24 5.693 22.612 3.1 20.242c-.226-.204-.025-.482.248-.324 2.809 1.635 6.283 2.617 9.876 2.617 2.421 0 5.083-.502 7.533-1.541.329-.141.607.216.319.454zm.91-2.548c-.308-.394-2.033-.186-2.808-.094-.236.029-.271-.176-.059-.324 1.374-.967 3.629-.688 3.892-.364.265.327-.07 2.585-1.358 3.664-.197.166-.386.077-.298-.141.29-.723.939-2.347.631-2.741z"/>
</svg>
